<mxfile host="app.diagrams.net" modified="2022-11-09T09:48:06.528Z" agent="5.0 (Macintosh; Intel Mac OS X 10_15_7) AppleWebKit/537.36 (KHTML, like Gecko) Chrome/107.0.0.0 Safari/537.36" etag="bwZjCQidgCbza0sSGHjT" version="20.5.1" type="github" pages="2">
  <diagram id="qIdcDjwDj3UZT8pqLWE8" name="MiniApp 改造">
    <mxGraphModel dx="1106" dy="614" grid="1" gridSize="10" guides="1" tooltips="1" connect="1" arrows="1" fold="1" page="1" pageScale="1" pageWidth="827" pageHeight="1169" math="0" shadow="0">
      <root>
        <mxCell id="0" />
        <mxCell id="1" parent="0" />
        <mxCell id="k7nwWT6xpRdfo8nqjPlU-28" style="edgeStyle=orthogonalEdgeStyle;rounded=0;orthogonalLoop=1;jettySize=auto;html=1;entryX=0.5;entryY=0;entryDx=0;entryDy=0;" parent="1" source="k7nwWT6xpRdfo8nqjPlU-1" target="k7nwWT6xpRdfo8nqjPlU-6" edge="1">
          <mxGeometry relative="1" as="geometry" />
        </mxCell>
        <mxCell id="k7nwWT6xpRdfo8nqjPlU-1" value="App 启动" style="ellipse;whiteSpace=wrap;html=1;" parent="1" vertex="1">
          <mxGeometry x="449" y="100" width="113" height="60" as="geometry" />
        </mxCell>
        <mxCell id="k7nwWT6xpRdfo8nqjPlU-31" style="edgeStyle=orthogonalEdgeStyle;rounded=0;orthogonalLoop=1;jettySize=auto;html=1;entryX=0;entryY=0.5;entryDx=0;entryDy=0;" parent="1" source="k7nwWT6xpRdfo8nqjPlU-2" target="k7nwWT6xpRdfo8nqjPlU-3" edge="1">
          <mxGeometry relative="1" as="geometry" />
        </mxCell>
        <mxCell id="k7nwWT6xpRdfo8nqjPlU-2" value="User" style="shape=umlActor;verticalLabelPosition=bottom;verticalAlign=top;html=1;outlineConnect=0;" parent="1" vertex="1">
          <mxGeometry x="156" y="199" width="30" height="60" as="geometry" />
        </mxCell>
        <mxCell id="k7nwWT6xpRdfo8nqjPlU-29" style="edgeStyle=orthogonalEdgeStyle;rounded=0;orthogonalLoop=1;jettySize=auto;html=1;entryX=0;entryY=0.5;entryDx=0;entryDy=0;" parent="1" source="k7nwWT6xpRdfo8nqjPlU-3" target="k7nwWT6xpRdfo8nqjPlU-6" edge="1">
          <mxGeometry relative="1" as="geometry" />
        </mxCell>
        <mxCell id="k7nwWT6xpRdfo8nqjPlU-3" value="切换到前台" style="rounded=0;whiteSpace=wrap;html=1;" parent="1" vertex="1">
          <mxGeometry x="260" y="209" width="120" height="40" as="geometry" />
        </mxCell>
        <mxCell id="k7nwWT6xpRdfo8nqjPlU-15" value="" style="edgeStyle=orthogonalEdgeStyle;rounded=0;orthogonalLoop=1;jettySize=auto;html=1;" parent="1" source="k7nwWT6xpRdfo8nqjPlU-5" target="k7nwWT6xpRdfo8nqjPlU-9" edge="1">
          <mxGeometry relative="1" as="geometry" />
        </mxCell>
        <mxCell id="k7nwWT6xpRdfo8nqjPlU-20" value="成功" style="edgeLabel;html=1;align=center;verticalAlign=middle;resizable=0;points=[];" parent="k7nwWT6xpRdfo8nqjPlU-15" vertex="1" connectable="0">
          <mxGeometry x="-0.475" y="1" relative="1" as="geometry">
            <mxPoint x="-1" y="7" as="offset" />
          </mxGeometry>
        </mxCell>
        <mxCell id="k7nwWT6xpRdfo8nqjPlU-22" style="edgeStyle=orthogonalEdgeStyle;rounded=0;orthogonalLoop=1;jettySize=auto;html=1;entryX=0.5;entryY=0;entryDx=0;entryDy=0;" parent="1" source="k7nwWT6xpRdfo8nqjPlU-5" target="k7nwWT6xpRdfo8nqjPlU-21" edge="1">
          <mxGeometry relative="1" as="geometry" />
        </mxCell>
        <mxCell id="k7nwWT6xpRdfo8nqjPlU-23" value="失败" style="edgeLabel;html=1;align=center;verticalAlign=middle;resizable=0;points=[];" parent="k7nwWT6xpRdfo8nqjPlU-22" vertex="1" connectable="0">
          <mxGeometry x="-0.3657" y="1" relative="1" as="geometry">
            <mxPoint as="offset" />
          </mxGeometry>
        </mxCell>
        <mxCell id="k7nwWT6xpRdfo8nqjPlU-5" value="请求配置" style="rhombus;whiteSpace=wrap;html=1;" parent="1" vertex="1">
          <mxGeometry x="455" y="380" width="100" height="70" as="geometry" />
        </mxCell>
        <mxCell id="k7nwWT6xpRdfo8nqjPlU-11" style="edgeStyle=orthogonalEdgeStyle;rounded=0;orthogonalLoop=1;jettySize=auto;html=1;entryX=0.5;entryY=0;entryDx=0;entryDy=0;" parent="1" source="k7nwWT6xpRdfo8nqjPlU-6" target="k7nwWT6xpRdfo8nqjPlU-7" edge="1">
          <mxGeometry relative="1" as="geometry" />
        </mxCell>
        <mxCell id="k7nwWT6xpRdfo8nqjPlU-18" value="有" style="edgeLabel;html=1;align=center;verticalAlign=middle;resizable=0;points=[];" parent="k7nwWT6xpRdfo8nqjPlU-11" vertex="1" connectable="0">
          <mxGeometry x="-0.275" y="-1" relative="1" as="geometry">
            <mxPoint as="offset" />
          </mxGeometry>
        </mxCell>
        <mxCell id="k7nwWT6xpRdfo8nqjPlU-13" style="edgeStyle=orthogonalEdgeStyle;rounded=0;orthogonalLoop=1;jettySize=auto;html=1;entryX=1;entryY=0.5;entryDx=0;entryDy=0;exitX=1;exitY=0.5;exitDx=0;exitDy=0;" parent="1" source="k7nwWT6xpRdfo8nqjPlU-6" target="k7nwWT6xpRdfo8nqjPlU-5" edge="1">
          <mxGeometry relative="1" as="geometry">
            <Array as="points">
              <mxPoint x="690" y="229" />
              <mxPoint x="690" y="415" />
            </Array>
          </mxGeometry>
        </mxCell>
        <mxCell id="k7nwWT6xpRdfo8nqjPlU-19" value="无" style="edgeLabel;html=1;align=center;verticalAlign=middle;resizable=0;points=[];" parent="k7nwWT6xpRdfo8nqjPlU-13" vertex="1" connectable="0">
          <mxGeometry x="-0.0175" y="4" relative="1" as="geometry">
            <mxPoint x="-4" y="-15" as="offset" />
          </mxGeometry>
        </mxCell>
        <mxCell id="k7nwWT6xpRdfo8nqjPlU-6" value="取用户缓存的 md5" style="rhombus;whiteSpace=wrap;html=1;" parent="1" vertex="1">
          <mxGeometry x="442.5" y="189" width="125" height="80" as="geometry" />
        </mxCell>
        <mxCell id="k7nwWT6xpRdfo8nqjPlU-14" style="edgeStyle=orthogonalEdgeStyle;rounded=0;orthogonalLoop=1;jettySize=auto;html=1;entryX=0.5;entryY=0;entryDx=0;entryDy=0;" parent="1" source="k7nwWT6xpRdfo8nqjPlU-7" target="k7nwWT6xpRdfo8nqjPlU-5" edge="1">
          <mxGeometry relative="1" as="geometry" />
        </mxCell>
        <mxCell id="k7nwWT6xpRdfo8nqjPlU-7" value="md5" style="whiteSpace=wrap;html=1;" parent="1" vertex="1">
          <mxGeometry x="450" y="309" width="110" height="40" as="geometry" />
        </mxCell>
        <mxCell id="k7nwWT6xpRdfo8nqjPlU-16" style="edgeStyle=orthogonalEdgeStyle;rounded=0;orthogonalLoop=1;jettySize=auto;html=1;entryX=0.5;entryY=0;entryDx=0;entryDy=0;" parent="1" source="k7nwWT6xpRdfo8nqjPlU-9" target="qJ52JjVPG2BVUz1fdkMk-5" edge="1">
          <mxGeometry relative="1" as="geometry">
            <mxPoint x="505" y="630" as="targetPoint" />
          </mxGeometry>
        </mxCell>
        <mxCell id="k7nwWT6xpRdfo8nqjPlU-25" value="有" style="edgeLabel;html=1;align=center;verticalAlign=middle;resizable=0;points=[];" parent="k7nwWT6xpRdfo8nqjPlU-16" vertex="1" connectable="0">
          <mxGeometry x="-0.26" y="-3" relative="1" as="geometry">
            <mxPoint as="offset" />
          </mxGeometry>
        </mxCell>
        <mxCell id="m98GCqlLoSxr4hQ4DAS8-2" style="edgeStyle=orthogonalEdgeStyle;rounded=0;orthogonalLoop=1;jettySize=auto;html=1;entryX=1;entryY=0.5;entryDx=0;entryDy=0;" edge="1" parent="1" source="k7nwWT6xpRdfo8nqjPlU-9" target="k7nwWT6xpRdfo8nqjPlU-10">
          <mxGeometry relative="1" as="geometry">
            <Array as="points">
              <mxPoint x="690" y="535" />
              <mxPoint x="690" y="725" />
            </Array>
          </mxGeometry>
        </mxCell>
        <mxCell id="m98GCqlLoSxr4hQ4DAS8-3" value="无" style="edgeLabel;html=1;align=center;verticalAlign=middle;resizable=0;points=[];" vertex="1" connectable="0" parent="m98GCqlLoSxr4hQ4DAS8-2">
          <mxGeometry x="-0.0275" y="2" relative="1" as="geometry">
            <mxPoint as="offset" />
          </mxGeometry>
        </mxCell>
        <mxCell id="k7nwWT6xpRdfo8nqjPlU-9" value="新数据" style="rhombus;whiteSpace=wrap;html=1;" parent="1" vertex="1">
          <mxGeometry x="455" y="500" width="100" height="70" as="geometry" />
        </mxCell>
        <mxCell id="k7nwWT6xpRdfo8nqjPlU-10" value="构建/更新 MiniAppManager" style="whiteSpace=wrap;html=1;fillColor=#d5e8d4;strokeColor=#82b366;" parent="1" vertex="1">
          <mxGeometry x="445" y="700" width="120" height="50" as="geometry" />
        </mxCell>
        <mxCell id="m98GCqlLoSxr4hQ4DAS8-1" style="edgeStyle=orthogonalEdgeStyle;rounded=0;orthogonalLoop=1;jettySize=auto;html=1;entryX=0;entryY=0.5;entryDx=0;entryDy=0;" edge="1" parent="1" source="k7nwWT6xpRdfo8nqjPlU-21" target="k7nwWT6xpRdfo8nqjPlU-10">
          <mxGeometry relative="1" as="geometry">
            <Array as="points">
              <mxPoint x="280" y="725" />
            </Array>
          </mxGeometry>
        </mxCell>
        <mxCell id="k7nwWT6xpRdfo8nqjPlU-21" value="取默认数据" style="whiteSpace=wrap;html=1;" parent="1" vertex="1">
          <mxGeometry x="220" y="545" width="120" height="40" as="geometry" />
        </mxCell>
        <mxCell id="qJ52JjVPG2BVUz1fdkMk-7" style="edgeStyle=orthogonalEdgeStyle;rounded=0;orthogonalLoop=1;jettySize=auto;html=1;entryX=0.5;entryY=0;entryDx=0;entryDy=0;" parent="1" source="qJ52JjVPG2BVUz1fdkMk-5" target="k7nwWT6xpRdfo8nqjPlU-10" edge="1">
          <mxGeometry relative="1" as="geometry" />
        </mxCell>
        <mxCell id="qJ52JjVPG2BVUz1fdkMk-5" value="以用户维度缓存" style="rounded=0;whiteSpace=wrap;html=1;" parent="1" vertex="1">
          <mxGeometry x="445" y="610" width="120" height="40" as="geometry" />
        </mxCell>
      </root>
    </mxGraphModel>
  </diagram>
  <diagram id="siqM-UVXF9p-lCljBy9X" name="类图">
    <mxGraphModel dx="1106" dy="614" grid="1" gridSize="10" guides="1" tooltips="1" connect="1" arrows="1" fold="1" page="1" pageScale="1" pageWidth="827" pageHeight="1169" math="0" shadow="0">
      <root>
        <mxCell id="0" />
        <mxCell id="1" parent="0" />
        <mxCell id="L51nYk7QgC1-J27hy4gM-5" value="DESMiniApp" style="swimlane;fontStyle=0;childLayout=stackLayout;horizontal=1;startSize=26;fillColor=none;horizontalStack=0;resizeParent=1;resizeParentMax=0;resizeLast=0;collapsible=1;marginBottom=0;" parent="1" vertex="1">
          <mxGeometry x="460" y="388" width="140" height="182" as="geometry" />
        </mxCell>
        <mxCell id="L51nYk7QgC1-J27hy4gM-6" value="+ category" style="text;strokeColor=none;fillColor=none;align=left;verticalAlign=top;spacingLeft=4;spacingRight=4;overflow=hidden;rotatable=0;points=[[0,0.5],[1,0.5]];portConstraint=eastwest;" parent="L51nYk7QgC1-J27hy4gM-5" vertex="1">
          <mxGeometry y="26" width="140" height="26" as="geometry" />
        </mxCell>
        <mxCell id="L51nYk7QgC1-J27hy4gM-7" value="+ appId" style="text;strokeColor=none;fillColor=none;align=left;verticalAlign=top;spacingLeft=4;spacingRight=4;overflow=hidden;rotatable=0;points=[[0,0.5],[1,0.5]];portConstraint=eastwest;" parent="L51nYk7QgC1-J27hy4gM-5" vertex="1">
          <mxGeometry y="52" width="140" height="26" as="geometry" />
        </mxCell>
        <mxCell id="L51nYk7QgC1-J27hy4gM-8" value="+ appName" style="text;strokeColor=none;fillColor=none;align=left;verticalAlign=top;spacingLeft=4;spacingRight=4;overflow=hidden;rotatable=0;points=[[0,0.5],[1,0.5]];portConstraint=eastwest;" parent="L51nYk7QgC1-J27hy4gM-5" vertex="1">
          <mxGeometry y="78" width="140" height="26" as="geometry" />
        </mxCell>
        <mxCell id="L51nYk7QgC1-J27hy4gM-21" value="+ isPreload" style="text;strokeColor=none;fillColor=none;align=left;verticalAlign=top;spacingLeft=4;spacingRight=4;overflow=hidden;rotatable=0;points=[[0,0.5],[1,0.5]];portConstraint=eastwest;" parent="L51nYk7QgC1-J27hy4gM-5" vertex="1">
          <mxGeometry y="104" width="140" height="26" as="geometry" />
        </mxCell>
        <mxCell id="L51nYk7QgC1-J27hy4gM-22" value="+ degrade" style="text;strokeColor=none;fillColor=none;align=left;verticalAlign=top;spacingLeft=4;spacingRight=4;overflow=hidden;rotatable=0;points=[[0,0.5],[1,0.5]];portConstraint=eastwest;" parent="L51nYk7QgC1-J27hy4gM-5" vertex="1">
          <mxGeometry y="130" width="140" height="26" as="geometry" />
        </mxCell>
        <mxCell id="L51nYk7QgC1-J27hy4gM-23" value="+ ...." style="text;strokeColor=none;fillColor=none;align=left;verticalAlign=top;spacingLeft=4;spacingRight=4;overflow=hidden;rotatable=0;points=[[0,0.5],[1,0.5]];portConstraint=eastwest;" parent="L51nYk7QgC1-J27hy4gM-5" vertex="1">
          <mxGeometry y="156" width="140" height="26" as="geometry" />
        </mxCell>
        <mxCell id="L51nYk7QgC1-J27hy4gM-9" value="DESMiniAppManager" style="swimlane;fontStyle=1;align=center;verticalAlign=top;childLayout=stackLayout;horizontal=1;startSize=26;horizontalStack=0;resizeParent=1;resizeParentMax=0;resizeLast=0;collapsible=1;marginBottom=0;" parent="1" vertex="1">
          <mxGeometry x="80" y="380" width="160" height="190" as="geometry" />
        </mxCell>
        <mxCell id="L51nYk7QgC1-J27hy4gM-15" value="+ shareInstance" style="text;strokeColor=none;fillColor=none;align=left;verticalAlign=top;spacingLeft=4;spacingRight=4;overflow=hidden;rotatable=0;points=[[0,0.5],[1,0.5]];portConstraint=eastwest;" parent="L51nYk7QgC1-J27hy4gM-9" vertex="1">
          <mxGeometry y="26" width="160" height="26" as="geometry" />
        </mxCell>
        <mxCell id="L51nYk7QgC1-J27hy4gM-17" value="+ miniApps" style="text;strokeColor=none;fillColor=none;align=left;verticalAlign=top;spacingLeft=4;spacingRight=4;overflow=hidden;rotatable=0;points=[[0,0.5],[1,0.5]];portConstraint=eastwest;" parent="L51nYk7QgC1-J27hy4gM-9" vertex="1">
          <mxGeometry y="52" width="160" height="26" as="geometry" />
        </mxCell>
        <mxCell id="L51nYk7QgC1-J27hy4gM-11" value="" style="line;strokeWidth=1;fillColor=none;align=left;verticalAlign=middle;spacingTop=-1;spacingLeft=3;spacingRight=3;rotatable=0;labelPosition=right;points=[];portConstraint=eastwest;strokeColor=inherit;" parent="L51nYk7QgC1-J27hy4gM-9" vertex="1">
          <mxGeometry y="78" width="160" height="8" as="geometry" />
        </mxCell>
        <mxCell id="L51nYk7QgC1-J27hy4gM-14" value="+ generateMiniAppsBy:" style="text;strokeColor=none;fillColor=none;align=left;verticalAlign=top;spacingLeft=4;spacingRight=4;overflow=hidden;rotatable=0;points=[[0,0.5],[1,0.5]];portConstraint=eastwest;" parent="L51nYk7QgC1-J27hy4gM-9" vertex="1">
          <mxGeometry y="86" width="160" height="26" as="geometry" />
        </mxCell>
        <mxCell id="L51nYk7QgC1-J27hy4gM-18" value="+ updateMiniApps" style="text;strokeColor=none;fillColor=none;align=left;verticalAlign=top;spacingLeft=4;spacingRight=4;overflow=hidden;rotatable=0;points=[[0,0.5],[1,0.5]];portConstraint=eastwest;" parent="L51nYk7QgC1-J27hy4gM-9" vertex="1">
          <mxGeometry y="112" width="160" height="26" as="geometry" />
        </mxCell>
        <mxCell id="L51nYk7QgC1-J27hy4gM-19" value="+ getMiniAppByCategory:" style="text;strokeColor=none;fillColor=none;align=left;verticalAlign=top;spacingLeft=4;spacingRight=4;overflow=hidden;rotatable=0;points=[[0,0.5],[1,0.5]];portConstraint=eastwest;" parent="L51nYk7QgC1-J27hy4gM-9" vertex="1">
          <mxGeometry y="138" width="160" height="26" as="geometry" />
        </mxCell>
        <mxCell id="L51nYk7QgC1-J27hy4gM-20" value="+ preloadMiniApps" style="text;strokeColor=none;fillColor=none;align=left;verticalAlign=top;spacingLeft=4;spacingRight=4;overflow=hidden;rotatable=0;points=[[0,0.5],[1,0.5]];portConstraint=eastwest;" parent="L51nYk7QgC1-J27hy4gM-9" vertex="1">
          <mxGeometry y="164" width="160" height="26" as="geometry" />
        </mxCell>
        <mxCell id="L51nYk7QgC1-J27hy4gM-25" style="edgeStyle=orthogonalEdgeStyle;rounded=0;orthogonalLoop=1;jettySize=auto;html=1;entryX=-0.007;entryY=0.093;entryDx=0;entryDy=0;entryPerimeter=0;" parent="1" source="L51nYk7QgC1-J27hy4gM-17" target="L51nYk7QgC1-J27hy4gM-5" edge="1">
          <mxGeometry relative="1" as="geometry" />
        </mxCell>
      </root>
    </mxGraphModel>
  </diagram>
</mxfile>
